<svg height="558" width="720" xmlns="http://www.w3.org/2000/svg">
<rect height="558" fill="#555" width="720"></rect>
<text fill="#7f7" font-family="Courier New" font-size="12" xml:space="preserve">
<tspan x="10" y="26">2 megabytes installed</tspan>
<tspan x="10" y="42"></tspan>
<tspan x="10" y="58">node_modules</tspan>
<tspan x="10" y="74">├── UNMET PEER DEPENDENCY eslint@&gt;=1.6.0 &lt;4.0.0</tspan>
<tspan x="10" y="90">└─┬ eslint-loader@1.7.1 </tspan>
<tspan x="10" y="106">  ├─┬ find-cache-dir@0.1.1 </tspan>
<tspan x="10" y="122">  │ ├── commondir@1.0.1 </tspan>
<tspan x="10" y="138">  │ ├─┬ mkdirp@0.5.1 </tspan>
<tspan x="10" y="154">  │ │ └── minimist@0.0.8 </tspan>
<tspan x="10" y="170">  │ └─┬ pkg-dir@1.0.0 </tspan>
<tspan x="10" y="186">  │   └─┬ find-up@1.1.2 </tspan>
<tspan x="10" y="202">  │     ├── path-exists@2.1.0 </tspan>
<tspan x="10" y="218">  │     └─┬ pinkie-promise@2.0.1 </tspan>
<tspan x="10" y="234">  │       └── pinkie@2.0.4 </tspan>
<tspan x="10" y="250">  ├── loader-fs-cache@1.0.1 </tspan>
<tspan x="10" y="266">  ├─┬ loader-utils@1.1.0 </tspan>
<tspan x="10" y="282">  │ ├── big.js@3.1.3 </tspan>
<tspan x="10" y="298">  │ ├── emojis-list@2.1.0 </tspan>
<tspan x="10" y="314">  │ └── json5@0.5.1 </tspan>
<tspan x="10" y="330">  ├── object-assign@4.1.1 </tspan>
<tspan x="10" y="346">  ├── object-hash@1.1.8 </tspan>
<tspan x="10" y="362">  └─┬ rimraf@2.6.1 </tspan>
<tspan x="10" y="378">    └─┬ glob@7.1.1 </tspan>
<tspan x="10" y="394">      ├── fs.realpath@1.0.0 </tspan>
<tspan x="10" y="410">      ├─┬ inflight@1.0.6 </tspan>
<tspan x="10" y="426">      │ └── wrappy@1.0.2 </tspan>
<tspan x="10" y="442">      ├── inherits@2.0.3 </tspan>
<tspan x="10" y="458">      ├─┬ minimatch@3.0.3 </tspan>
<tspan x="10" y="474">      │ └─┬ brace-expansion@1.1.7 </tspan>
<tspan x="10" y="490">      │   ├── balanced-match@0.4.2 </tspan>
<tspan x="10" y="506">      │   └── concat-map@0.0.1 </tspan>
<tspan x="10" y="522">      ├── once@1.4.0 </tspan>
<tspan x="10" y="538">      └── path-is-absolute@1.0.1</tspan>
</text>
</svg>
